# MagicaVoxel @ Ephtracy

# material
mtllib Bottomwall.mtl
usemtl palette

# normals
vn -1 0 0
vn 1 0 0
vn 0 0 1
vn 0 0 -1
vn 0 -1 0
vn 0 1 0

# texcoords
vt 0.283203 0.5
vt 0.287109 0.5
vt 0.689453 0.5
vt 0.697266 0.5

# verts
v -20 0 6
v -20 0 5
v -20 0 4
v -20 0 3
v -20 0 2
v -20 0 1
v -20 0 -0
v -20 0 -1
v -20 0 -2
v -20 0 -3
v -20 0 -4
v -20 0 -5
v -20 0 -6
v -20 0 -7
v -20 1 6
v -20 1 5
v -20 1 4
v -20 1 3
v -20 1 2
v -20 1 1
v -20 1 -0
v -20 1 -1
v -20 1 -2
v -20 1 -3
v -20 1 -4
v -20 1 -5
v -20 1 -6
v -20 1 -7
v -20 15 6
v -20 15 5
v -20 15 4
v -20 15 3
v -20 15 2
v -20 15 1
v -20 15 -0
v -20 15 -1
v -20 15 -2
v -20 15 -3
v -20 15 -4
v -20 15 -5
v -20 15 -6
v -20 15 -7
v -19 0 6
v -19 0 5
v -19 0 4
v -19 0 3
v -19 0 2
v -19 0 1
v -19 0 -0
v -19 0 -1
v -19 0 -2
v -19 0 -3
v -19 0 -4
v -19 0 -5
v -19 0 -6
v -19 0 -7
v -19 1 6
v -19 1 5
v -19 1 4
v -19 1 3
v -19 1 2
v -19 1 1
v -19 1 -0
v -19 1 -1
v -19 1 -2
v -19 1 -3
v -19 1 -4
v -19 1 -5
v -19 1 -6
v -19 1 -7
v -19 15 6
v -19 15 5
v -19 15 4
v -19 15 3
v -19 15 2
v -19 15 1
v -19 15 -0
v -19 15 -1
v -19 15 -2
v -19 15 -3
v -19 15 -4
v -19 15 -5
v -19 15 -6
v -19 15 -7
v -20 0 6
v -20 1 6
v -20 15 6
v -19 0 6
v -19 1 6
v -19 15 6
v -20 0 -7
v -20 1 -7
v -20 15 -7
v -19 0 -7
v -19 1 -7
v -19 15 -7
v -20 0 6
v -19 0 6
v -20 0 5
v -19 0 5
v -20 0 4
v -19 0 4
v -20 0 3
v -19 0 3
v -20 0 2
v -19 0 2
v -20 0 1
v -19 0 1
v -20 0 -0
v -19 0 -0
v -20 0 -1
v -19 0 -1
v -20 0 -2
v -19 0 -2
v -20 0 -3
v -19 0 -3
v -20 0 -4
v -19 0 -4
v -20 0 -5
v -19 0 -5
v -20 0 -6
v -19 0 -6
v -20 0 -7
v -19 0 -7
v -20 15 6
v -19 15 6
v -20 15 5
v -19 15 5
v -20 15 4
v -19 15 4
v -20 15 3
v -19 15 3
v -20 15 2
v -19 15 2
v -20 15 1
v -19 15 1
v -20 15 -0
v -19 15 -0
v -20 15 -1
v -19 15 -1
v -20 15 -2
v -19 15 -2
v -20 15 -3
v -19 15 -3
v -20 15 -4
v -19 15 -4
v -20 15 -5
v -19 15 -5
v -20 15 -6
v -19 15 -6
v -20 15 -7
v -19 15 -7

# faces
f 15/1/1 2/1/1 1/1/1
f 16/2/1 3/2/1 2/2/1
f 16/1/1 2/1/1 15/1/1
f 17/1/1 4/1/1 3/1/1
f 17/2/1 3/2/1 16/2/1
f 18/2/1 5/2/1 4/2/1
f 18/1/1 4/1/1 17/1/1
f 19/1/1 6/1/1 5/1/1
f 19/2/1 5/2/1 18/2/1
f 20/2/1 7/2/1 6/2/1
f 20/1/1 6/1/1 19/1/1
f 21/1/1 8/1/1 7/1/1
f 21/2/1 7/2/1 20/2/1
f 22/2/1 9/2/1 8/2/1
f 22/1/1 8/1/1 21/1/1
f 23/1/1 10/1/1 9/1/1
f 23/2/1 9/2/1 22/2/1
f 24/2/1 11/2/1 10/2/1
f 24/1/1 10/1/1 23/1/1
f 25/1/1 12/1/1 11/1/1
f 25/2/1 11/2/1 24/2/1
f 26/2/1 13/2/1 12/2/1
f 26/1/1 12/1/1 25/1/1
f 27/1/1 14/1/1 13/1/1
f 27/2/1 13/2/1 26/2/1
f 28/1/1 14/1/1 27/1/1
f 29/4/1 16/4/1 15/4/1
f 30/3/1 17/3/1 16/3/1
f 30/4/1 16/4/1 29/4/1
f 31/4/1 18/4/1 17/4/1
f 31/3/1 17/3/1 30/3/1
f 32/3/1 19/3/1 18/3/1
f 32/4/1 18/4/1 31/4/1
f 33/4/1 20/4/1 19/4/1
f 33/3/1 19/3/1 32/3/1
f 34/3/1 21/3/1 20/3/1
f 34/4/1 20/4/1 33/4/1
f 35/4/1 22/4/1 21/4/1
f 35/3/1 21/3/1 34/3/1
f 36/3/1 23/3/1 22/3/1
f 36/4/1 22/4/1 35/4/1
f 37/4/1 24/4/1 23/4/1
f 37/3/1 23/3/1 36/3/1
f 38/3/1 25/3/1 24/3/1
f 38/4/1 24/4/1 37/4/1
f 39/4/1 26/4/1 25/4/1
f 39/3/1 25/3/1 38/3/1
f 40/3/1 27/3/1 26/3/1
f 40/4/1 26/4/1 39/4/1
f 41/4/1 28/4/1 27/4/1
f 41/3/1 27/3/1 40/3/1
f 42/4/1 28/4/1 41/4/1
f 43/1/2 44/1/2 57/1/2
f 44/2/2 45/2/2 58/2/2
f 57/1/2 44/1/2 58/1/2
f 45/1/2 46/1/2 59/1/2
f 58/2/2 45/2/2 59/2/2
f 46/2/2 47/2/2 60/2/2
f 59/1/2 46/1/2 60/1/2
f 47/1/2 48/1/2 61/1/2
f 60/2/2 47/2/2 61/2/2
f 48/2/2 49/2/2 62/2/2
f 61/1/2 48/1/2 62/1/2
f 49/1/2 50/1/2 63/1/2
f 62/2/2 49/2/2 63/2/2
f 50/2/2 51/2/2 64/2/2
f 63/1/2 50/1/2 64/1/2
f 51/1/2 52/1/2 65/1/2
f 64/2/2 51/2/2 65/2/2
f 52/2/2 53/2/2 66/2/2
f 65/1/2 52/1/2 66/1/2
f 53/1/2 54/1/2 67/1/2
f 66/2/2 53/2/2 67/2/2
f 54/2/2 55/2/2 68/2/2
f 67/1/2 54/1/2 68/1/2
f 55/1/2 56/1/2 69/1/2
f 68/2/2 55/2/2 69/2/2
f 69/1/2 56/1/2 70/1/2
f 57/4/2 58/4/2 71/4/2
f 58/3/2 59/3/2 72/3/2
f 71/4/2 58/4/2 72/4/2
f 59/4/2 60/4/2 73/4/2
f 72/3/2 59/3/2 73/3/2
f 60/3/2 61/3/2 74/3/2
f 73/4/2 60/4/2 74/4/2
f 61/4/2 62/4/2 75/4/2
f 74/3/2 61/3/2 75/3/2
f 62/3/2 63/3/2 76/3/2
f 75/4/2 62/4/2 76/4/2
f 63/4/2 64/4/2 77/4/2
f 76/3/2 63/3/2 77/3/2
f 64/3/2 65/3/2 78/3/2
f 77/4/2 64/4/2 78/4/2
f 65/4/2 66/4/2 79/4/2
f 78/3/2 65/3/2 79/3/2
f 66/3/2 67/3/2 80/3/2
f 79/4/2 66/4/2 80/4/2
f 67/4/2 68/4/2 81/4/2
f 80/3/2 67/3/2 81/3/2
f 68/3/2 69/3/2 82/3/2
f 81/4/2 68/4/2 82/4/2
f 69/4/2 70/4/2 83/4/2
f 82/3/2 69/3/2 83/3/2
f 83/4/2 70/4/2 84/4/2
f 88/1/3 86/1/3 85/1/3
f 89/4/3 87/4/3 86/4/3
f 89/1/3 86/1/3 88/1/3
f 90/4/3 87/4/3 89/4/3
f 91/1/4 92/1/4 94/1/4
f 92/4/4 93/4/4 95/4/4
f 94/1/4 92/1/4 95/1/4
f 95/4/4 93/4/4 96/4/4
f 99/1/5 98/1/5 97/1/5
f 100/1/5 98/1/5 99/1/5
f 101/2/5 100/2/5 99/2/5
f 102/2/5 100/2/5 101/2/5
f 103/1/5 102/1/5 101/1/5
f 104/1/5 102/1/5 103/1/5
f 105/2/5 104/2/5 103/2/5
f 106/2/5 104/2/5 105/2/5
f 107/1/5 106/1/5 105/1/5
f 108/1/5 106/1/5 107/1/5
f 109/2/5 108/2/5 107/2/5
f 110/2/5 108/2/5 109/2/5
f 111/1/5 110/1/5 109/1/5
f 112/1/5 110/1/5 111/1/5
f 113/2/5 112/2/5 111/2/5
f 114/2/5 112/2/5 113/2/5
f 115/1/5 114/1/5 113/1/5
f 116/1/5 114/1/5 115/1/5
f 117/2/5 116/2/5 115/2/5
f 118/2/5 116/2/5 117/2/5
f 119/1/5 118/1/5 117/1/5
f 120/1/5 118/1/5 119/1/5
f 121/2/5 120/2/5 119/2/5
f 122/2/5 120/2/5 121/2/5
f 123/1/5 122/1/5 121/1/5
f 124/1/5 122/1/5 123/1/5
f 125/4/6 126/4/6 127/4/6
f 127/4/6 126/4/6 128/4/6
f 127/3/6 128/3/6 129/3/6
f 129/3/6 128/3/6 130/3/6
f 129/4/6 130/4/6 131/4/6
f 131/4/6 130/4/6 132/4/6
f 131/3/6 132/3/6 133/3/6
f 133/3/6 132/3/6 134/3/6
f 133/4/6 134/4/6 135/4/6
f 135/4/6 134/4/6 136/4/6
f 135/3/6 136/3/6 137/3/6
f 137/3/6 136/3/6 138/3/6
f 137/4/6 138/4/6 139/4/6
f 139/4/6 138/4/6 140/4/6
f 139/3/6 140/3/6 141/3/6
f 141/3/6 140/3/6 142/3/6
f 141/4/6 142/4/6 143/4/6
f 143/4/6 142/4/6 144/4/6
f 143/3/6 144/3/6 145/3/6
f 145/3/6 144/3/6 146/3/6
f 145/4/6 146/4/6 147/4/6
f 147/4/6 146/4/6 148/4/6
f 147/3/6 148/3/6 149/3/6
f 149/3/6 148/3/6 150/3/6
f 149/4/6 150/4/6 151/4/6
f 151/4/6 150/4/6 152/4/6
