# MagicaVoxel @ Ephtracy

# material
mtllib Wall.mtl
usemtl palette

# normals
vn -1 0 0
vn 1 0 0
vn 0 0 1
vn 0 0 -1
vn 0 -1 0
vn 0 1 0

# texcoords
vt 0.689453 0.5
vt 0.697266 0.5

# verts
v -20 0 6
v -20 0 5
v -20 0 4
v -20 0 3
v -20 0 2
v -20 0 1
v -20 0 -0
v -20 0 -1
v -20 0 -2
v -20 0 -3
v -20 0 -4
v -20 0 -5
v -20 0 -6
v -20 0 -7
v -20 15 6
v -20 15 5
v -20 15 4
v -20 15 3
v -20 15 2
v -20 15 1
v -20 15 -0
v -20 15 -1
v -20 15 -2
v -20 15 -3
v -20 15 -4
v -20 15 -5
v -20 15 -6
v -20 15 -7
v -19 0 6
v -19 0 5
v -19 0 4
v -19 0 3
v -19 0 2
v -19 0 1
v -19 0 -0
v -19 0 -1
v -19 0 -2
v -19 0 -3
v -19 0 -4
v -19 0 -5
v -19 0 -6
v -19 0 -7
v -19 15 6
v -19 15 5
v -19 15 4
v -19 15 3
v -19 15 2
v -19 15 1
v -19 15 -0
v -19 15 -1
v -19 15 -2
v -19 15 -3
v -19 15 -4
v -19 15 -5
v -19 15 -6
v -19 15 -7
v -20 0 6
v -20 15 6
v -19 0 6
v -19 15 6
v -20 0 -7
v -20 15 -7
v -19 0 -7
v -19 15 -7
v -20 0 6
v -19 0 6
v -20 0 5
v -19 0 5
v -20 0 4
v -19 0 4
v -20 0 3
v -19 0 3
v -20 0 2
v -19 0 2
v -20 0 1
v -19 0 1
v -20 0 -0
v -19 0 -0
v -20 0 -1
v -19 0 -1
v -20 0 -2
v -19 0 -2
v -20 0 -3
v -19 0 -3
v -20 0 -4
v -19 0 -4
v -20 0 -5
v -19 0 -5
v -20 0 -6
v -19 0 -6
v -20 0 -7
v -19 0 -7
v -20 15 6
v -19 15 6
v -20 15 5
v -19 15 5
v -20 15 4
v -19 15 4
v -20 15 3
v -19 15 3
v -20 15 2
v -19 15 2
v -20 15 1
v -19 15 1
v -20 15 -0
v -19 15 -0
v -20 15 -1
v -19 15 -1
v -20 15 -2
v -19 15 -2
v -20 15 -3
v -19 15 -3
v -20 15 -4
v -19 15 -4
v -20 15 -5
v -19 15 -5
v -20 15 -6
v -19 15 -6
v -20 15 -7
v -19 15 -7

# faces
f 15/2/1 2/2/1 1/2/1
f 16/1/1 3/1/1 2/1/1
f 16/2/1 2/2/1 15/2/1
f 17/2/1 4/2/1 3/2/1
f 17/1/1 3/1/1 16/1/1
f 18/1/1 5/1/1 4/1/1
f 18/2/1 4/2/1 17/2/1
f 19/2/1 6/2/1 5/2/1
f 19/1/1 5/1/1 18/1/1
f 20/1/1 7/1/1 6/1/1
f 20/2/1 6/2/1 19/2/1
f 21/2/1 8/2/1 7/2/1
f 21/1/1 7/1/1 20/1/1
f 22/1/1 9/1/1 8/1/1
f 22/2/1 8/2/1 21/2/1
f 23/2/1 10/2/1 9/2/1
f 23/1/1 9/1/1 22/1/1
f 24/1/1 11/1/1 10/1/1
f 24/2/1 10/2/1 23/2/1
f 25/2/1 12/2/1 11/2/1
f 25/1/1 11/1/1 24/1/1
f 26/1/1 13/1/1 12/1/1
f 26/2/1 12/2/1 25/2/1
f 27/2/1 14/2/1 13/2/1
f 27/1/1 13/1/1 26/1/1
f 28/2/1 14/2/1 27/2/1
f 29/2/2 30/2/2 43/2/2
f 30/1/2 31/1/2 44/1/2
f 43/2/2 30/2/2 44/2/2
f 31/2/2 32/2/2 45/2/2
f 44/1/2 31/1/2 45/1/2
f 32/1/2 33/1/2 46/1/2
f 45/2/2 32/2/2 46/2/2
f 33/2/2 34/2/2 47/2/2
f 46/1/2 33/1/2 47/1/2
f 34/1/2 35/1/2 48/1/2
f 47/2/2 34/2/2 48/2/2
f 35/2/2 36/2/2 49/2/2
f 48/1/2 35/1/2 49/1/2
f 36/1/2 37/1/2 50/1/2
f 49/2/2 36/2/2 50/2/2
f 37/2/2 38/2/2 51/2/2
f 50/1/2 37/1/2 51/1/2
f 38/1/2 39/1/2 52/1/2
f 51/2/2 38/2/2 52/2/2
f 39/2/2 40/2/2 53/2/2
f 52/1/2 39/1/2 53/1/2
f 40/1/2 41/1/2 54/1/2
f 53/2/2 40/2/2 54/2/2
f 41/2/2 42/2/2 55/2/2
f 54/1/2 41/1/2 55/1/2
f 55/2/2 42/2/2 56/2/2
f 59/2/3 58/2/3 57/2/3
f 60/2/3 58/2/3 59/2/3
f 61/2/4 62/2/4 63/2/4
f 63/2/4 62/2/4 64/2/4
f 67/2/5 66/2/5 65/2/5
f 68/2/5 66/2/5 67/2/5
f 69/1/5 68/1/5 67/1/5
f 70/1/5 68/1/5 69/1/5
f 71/2/5 70/2/5 69/2/5
f 72/2/5 70/2/5 71/2/5
f 73/1/5 72/1/5 71/1/5
f 74/1/5 72/1/5 73/1/5
f 75/2/5 74/2/5 73/2/5
f 76/2/5 74/2/5 75/2/5
f 77/1/5 76/1/5 75/1/5
f 78/1/5 76/1/5 77/1/5
f 79/2/5 78/2/5 77/2/5
f 80/2/5 78/2/5 79/2/5
f 81/1/5 80/1/5 79/1/5
f 82/1/5 80/1/5 81/1/5
f 83/2/5 82/2/5 81/2/5
f 84/2/5 82/2/5 83/2/5
f 85/1/5 84/1/5 83/1/5
f 86/1/5 84/1/5 85/1/5
f 87/2/5 86/2/5 85/2/5
f 88/2/5 86/2/5 87/2/5
f 89/1/5 88/1/5 87/1/5
f 90/1/5 88/1/5 89/1/5
f 91/2/5 90/2/5 89/2/5
f 92/2/5 90/2/5 91/2/5
f 93/2/6 94/2/6 95/2/6
f 95/2/6 94/2/6 96/2/6
f 95/1/6 96/1/6 97/1/6
f 97/1/6 96/1/6 98/1/6
f 97/2/6 98/2/6 99/2/6
f 99/2/6 98/2/6 100/2/6
f 99/1/6 100/1/6 101/1/6
f 101/1/6 100/1/6 102/1/6
f 101/2/6 102/2/6 103/2/6
f 103/2/6 102/2/6 104/2/6
f 103/1/6 104/1/6 105/1/6
f 105/1/6 104/1/6 106/1/6
f 105/2/6 106/2/6 107/2/6
f 107/2/6 106/2/6 108/2/6
f 107/1/6 108/1/6 109/1/6
f 109/1/6 108/1/6 110/1/6
f 109/2/6 110/2/6 111/2/6
f 111/2/6 110/2/6 112/2/6
f 111/1/6 112/1/6 113/1/6
f 113/1/6 112/1/6 114/1/6
f 113/2/6 114/2/6 115/2/6
f 115/2/6 114/2/6 116/2/6
f 115/1/6 116/1/6 117/1/6
f 117/1/6 116/1/6 118/1/6
f 117/2/6 118/2/6 119/2/6
f 119/2/6 118/2/6 120/2/6
